<?xml version="1.0" encoding="UTF-8" standalone="no"?>
<svg
   xmlns:dc="http://purl.org/dc/elements/1.1/"
   xmlns:cc="http://creativecommons.org/ns#"
   xmlns:rdf="http://www.w3.org/1999/02/22-rdf-syntax-ns#"
   xmlns:svg="http://www.w3.org/2000/svg"
   xmlns="http://www.w3.org/2000/svg"
   xmlns:sodipodi="http://sodipodi.sourceforge.net/DTD/sodipodi-0.dtd"
   xmlns:inkscape="http://www.inkscape.org/namespaces/inkscape"
   enable-background="new -1163 1657.697 56.693 56.693"
   height="56.693px"
   id="Layer_1"
   version="1.1"
   viewBox="-1163 1657.697 56.693 56.693"
   width="56.693px"
   xml:space="preserve"
   inkscape:version="0.91 r13725"
   sodipodi:docname="github-icon.svg"><metadata
     id="metadata4315"><rdf:RDF><cc:Work
         rdf:about=""><dc:format>image/svg+xml</dc:format><dc:type
           rdf:resource="http://purl.org/dc/dcmitype/StillImage" /></cc:Work></rdf:RDF></metadata><defs
     id="defs4313" /><sodipodi:namedview
     pagecolor="#ffffff"
     bordercolor="#666666"
     borderopacity="1"
     objecttolerance="10"
     gridtolerance="10"
     guidetolerance="10"
     inkscape:pageopacity="0"
     inkscape:pageshadow="2"
     inkscape:window-width="1920"
     inkscape:window-height="1056"
     id="namedview4311"
     showgrid="false"
     inkscape:zoom="11.774095"
     inkscape:cx="20.36308"
     inkscape:cy="27.607437"
     inkscape:window-x="0"
     inkscape:window-y="24"
     inkscape:window-maximized="1"
     inkscape:current-layer="Layer_1" /><g
     id="g4293"
     transform="matrix(1.1534504,0,0,1.1534504,174.24135,-259.91452)"><path
       d="m -1134.6598,1662.9163 c -13.601,0 -24.63,11.0267 -24.63,24.6299 0,10.8821 7.0573,20.1144 16.8435,23.3713 1.2308,0.2279 1.6829,-0.5345 1.6829,-1.1849 0,-0.587 -0.023,-2.5276 -0.033,-4.5857 -6.8521,1.4901 -8.2979,-2.906 -8.2979,-2.906 -1.1205,-2.8467 -2.7347,-3.6039 -2.7347,-3.6039 -2.2349,-1.5287 0.1685,-1.4972 0.1685,-1.4972 2.473,0.1737 3.7755,2.5385 3.7755,2.5385 2.1967,3.7651 5.7618,2.6765 7.1675,2.0472 0.2211,-1.5917 0.8591,-2.6786 1.5637,-3.2936 -5.4707,-0.6226 -11.2218,-2.7347 -11.2218,-12.1722 0,-2.6888 0.9623,-4.8861 2.538,-6.611 -0.2557,-0.6206 -1.0989,-3.1255 0.2386,-6.5183 0,0 2.0684,-0.6616 6.7747,2.525 1.9648,-0.5458 4.0719,-0.8195 6.165,-0.829 2.093,0.01 4.2017,0.2832 6.17,0.829 4.7012,-3.1866 6.7665,-2.525 6.7665,-2.525 1.3406,3.3928 0.4974,5.8977 0.2417,6.5183 1.5793,1.7249 2.5348,3.9221 2.5348,6.611 0,9.4602 -5.7618,11.5428 -11.2465,12.1527 0.8834,0.7644 1.6704,2.2632 1.6704,4.561 0,3.2955 -0.028,5.9479 -0.028,6.7592 0,0.6556 0.4432,1.4236 1.6915,1.1818 9.7812,-3.2605 16.8296,-12.4896 16.8296,-23.3682 0,-13.6032 -11.0275,-24.6299 -24.6299,-24.6299 z"
       id="path4295"
       inkscape:connector-curvature="0"
       style="clip-rule:evenodd;fill-rule:evenodd" /><path
       d="m -1149.9611,1698.2793 c -0.054,0.1227 -0.2469,0.1593 -0.4222,0.075 -0.1788,-0.08 -0.2788,-0.2473 -0.2211,-0.37 0.053,-0.126 0.2457,-0.161 0.4242,-0.077 0.1789,0.081 0.2809,0.2489 0.2191,0.3716 l 0,0 z m -0.3031,-0.2246"
       id="path4297"
       inkscape:connector-curvature="0" /><path
       d="m -1148.9634,1699.3922 c -0.1174,0.1086 -0.3473,0.058 -0.5031,-0.1139 -0.1613,-0.1718 -0.1912,-0.4016 -0.072,-0.5118 0.1211,-0.1088 0.3438,-0.058 0.505,0.1139 0.1614,0.1737 0.1928,0.4015 0.07,0.5118 l 0,0 z m -0.235,-0.2522"
       id="path4299"
       inkscape:connector-curvature="0" /><path
       d="m -1147.9922,1700.8105 c -0.151,0.1051 -0.3979,0.01 -0.5505,-0.2123 -0.151,-0.2191 -0.151,-0.4819 0,-0.5872 0.1526,-0.1051 0.396,-0.01 0.5505,0.2068 0.1506,0.2228 0.1506,0.4856 0,0.5927 l 0,0 z m 0,0"
       id="path4301"
       inkscape:connector-curvature="0" /><path
       d="m -1146.6619,1702.1812 c -0.1351,0.1489 -0.4227,0.1086 -0.6329,-0.094 -0.2155,-0.1984 -0.2753,-0.4803 -0.1403,-0.6293 0.1371,-0.149 0.4263,-0.1072 0.6381,0.094 0.2139,0.1983 0.2788,0.4819 0.1351,0.6294 l 0,0 z m 0,0"
       id="path4303"
       inkscape:connector-curvature="0" /><path
       d="m -1144.8265,1702.9769 c -0.06,0.1927 -0.3365,0.2804 -0.6154,0.1984 -0.2788,-0.085 -0.4608,-0.3103 -0.4047,-0.5051 0.058,-0.1943 0.3361,-0.2855 0.6169,-0.1979 0.2785,0.084 0.4609,0.3082 0.4032,0.5046 l 0,0 z m 0,0"
       id="path4305"
       inkscape:connector-curvature="0" /><path
       d="m -1142.8107,1703.1243 c 0.01,0.2031 -0.2299,0.3716 -0.5226,0.3752 -0.2944,0.01 -0.533,-0.1577 -0.5361,-0.3577 0,-0.2052 0.2313,-0.3717 0.5258,-0.3768 0.2927,-0.01 0.5329,0.1577 0.5329,0.3593 l 0,0 z m 0,0"
       id="path4307"
       inkscape:connector-curvature="0" /><path
       d="m -1140.9351,1702.8052 c 0.035,0.198 -0.1686,0.4015 -0.4594,0.4557 -0.2859,0.053 -0.5504,-0.07 -0.587,-0.2665 -0.035,-0.2031 0.1716,-0.4066 0.4573,-0.4592 0.2912,-0.051 0.552,0.068 0.5891,0.27 l 0,0 z m 0,0"
       id="path4309"
       inkscape:connector-curvature="0" /></g></svg>