<?xml version="1.0" ?><!DOCTYPE svg  PUBLIC '-//W3C//DTD SVG 1.1//EN'  'http://www.w3.org/Graphics/SVG/1.1/DTD/svg11.dtd'><svg enable-background="new 0 0 512 512" height="512px" id="Layer_1" version="1.1" viewBox="0 0 512 512" width="512px" xml:space="preserve" xmlns="http://www.w3.org/2000/svg" xmlns:xlink="http://www.w3.org/1999/xlink"><g><path d="M437.013,74.963C390.661,28.765,326.734,0,255.998,0C185.261,0,121.335,28.765,74.983,74.963   C28.636,121.305,0,185.355,0,256.073c0,70.566,28.636,134.625,74.983,180.959C121.335,483.232,185.261,512,255.998,512   c70.736,0,134.663-28.768,181.015-74.968C483.359,390.698,512,326.64,512,256.073C512,185.355,483.359,121.305,437.013,74.963z"/><path clip-rule="evenodd" d="M384.138,201.512c0,0-2.686-18.847-10.491-27.066   c-9.915-10.769-21.118-10.912-26.076-11.624c-36.572-2.69-91.426-2.69-91.426-2.69h-0.293c0,0-54.708,0-91.29,2.69   c-5.235,0.712-16.292,0.855-26.213,11.624c-7.8,8.22-10.486,27.066-10.486,27.066s-2.701,22.107-2.701,43.929v2.837v17.994   c0,22.107,2.701,43.935,2.701,43.935s2.687,18.847,10.486,27.207c9.921,10.91,22.967,10.488,28.919,11.619   c20.836,2.127,88.877,2.837,88.877,2.837s54.854-0.283,91.426-2.837c4.958-0.709,16.161-0.709,26.076-11.619   c7.806-8.36,10.491-27.207,10.491-27.207s2.55-21.827,2.55-43.935v-16.861v-3.97C386.688,223.619,384.138,201.512,384.138,201.512   L384.138,201.512z M299.659,253.098l-70.737,38.115v-58.668V214.69l32.039,17.433L299.659,253.098z" fill="#FFFFFF" fill-rule="evenodd"/></g></svg>