<?xml version="1.0" ?><!DOCTYPE svg  PUBLIC '-//W3C//DTD SVG 1.1//EN'  'http://www.w3.org/Graphics/SVG/1.1/DTD/svg11.dtd'><svg enable-background="new 0 0 512 512" height="512px" id="Layer_1" version="1.1" viewBox="0 0 512 512" width="512px" xml:space="preserve" xmlns="http://www.w3.org/2000/svg" xmlns:xlink="http://www.w3.org/1999/xlink"><g><path d="M437.013,74.985C390.803,28.629,326.729,0,255.998,0c-70.591,0-134.655,28.629-181.01,74.985   C28.634,121.341,0,185.268,0,256s28.634,134.661,74.988,181.014C121.343,483.368,185.407,512,255.998,512   c70.731,0,134.805-28.632,181.015-74.986C483.369,390.661,512,326.732,512,256S483.369,121.341,437.013,74.985z"/><path clip-rule="evenodd" d="M190.512,256c0-36.146,29.343-65.631,65.486-65.631   c36.29,0,65.633,29.484,65.633,65.631c0,36.285-29.343,65.631-65.633,65.631C219.854,321.631,190.512,292.285,190.512,256   L190.512,256z M323.761,127.717H188.386c-33.311,0-60.664,27.213-60.664,60.671v135.371c0,33.306,27.354,60.665,60.664,60.665   h135.375c33.453,0,60.665-27.359,60.665-60.665V188.388C384.426,154.93,357.214,127.717,323.761,127.717L323.761,127.717z    M188.386,142.886h135.375c25.092,0,45.499,20.407,45.499,45.502v135.371c0,25.087-20.407,45.496-45.499,45.496H188.386   c-25.092,0-45.498-20.409-45.498-45.496V188.388C142.888,163.293,163.294,142.886,188.386,142.886L188.386,142.886z    M337.221,162.021c-7.371,0-13.318,5.952-13.318,13.321c0,7.373,5.947,13.326,13.318,13.326s13.328-5.953,13.328-13.326   C350.549,167.973,344.592,162.021,337.221,162.021L337.221,162.021z M338.781,256c0-45.646-36.992-82.781-82.783-82.781   c-45.641,0-82.778,37.136-82.778,82.781c0,45.786,37.138,82.783,82.778,82.783C301.789,338.783,338.781,301.786,338.781,256   L338.781,256z" fill="#FFFFFF" fill-rule="evenodd"/></g></svg>