<?xml version="1.0" ?><!DOCTYPE svg  PUBLIC '-//W3C//DTD SVG 1.1//EN'  'http://www.w3.org/Graphics/SVG/1.1/DTD/svg11.dtd'><svg enable-background="new 0 0 512 512" height="512px" id="Layer_1" version="1.1" viewBox="0 0 512 512" width="512px" xml:space="preserve" xmlns="http://www.w3.org/2000/svg" xmlns:xlink="http://www.w3.org/1999/xlink"><g><path d="M437.018,74.963C390.661,28.765,326.734,0,256.003,0C185.266,0,121.34,28.765,74.993,74.963   C28.631,121.305,0,185.355,0,256.073c0,70.566,28.631,134.625,74.993,180.959C121.34,483.232,185.266,512,256.003,512   c70.731,0,134.658-28.768,181.015-74.968C483.369,390.698,512,326.64,512,256.073C512,185.355,483.369,121.305,437.018,74.963z"/><path clip-rule="evenodd" d="M386.692,176.285c-9.501,4.114-19.841,6.948-30.756,8.361   c11.192-6.657,19.694-16.863,23.673-29.333c-10.35,6.092-21.972,10.486-34.159,12.894c-9.653-10.339-23.673-16.719-39.269-16.719   c-29.484,0-53.587,23.667-53.587,52.714c0,4.252,0.718,8.222,1.565,12.05c-44.65-2.127-84.202-23.102-110.571-55.129   c-4.533,7.937-7.365,16.866-7.365,26.501c0,18.423,9.638,34.577,23.81,43.932c-8.785-0.141-17.01-2.554-24.234-6.521   c0,0.285,0,0.427,0,0.709c0,6.801,1.277,13.04,3.681,18.988c6.528,16.585,21.411,29.052,39.415,32.596   c-4.686,1.276-9.219,1.98-14.177,1.98c-3.402,0-6.806-0.424-10.072-1.131c6.952,20.975,26.652,36.275,50.048,36.846   c-18.433,14.17-41.395,22.531-66.486,22.531c-4.397,0-8.502-0.287-12.894-0.709c23.81,14.882,52.016,23.667,82.212,23.667   c83.772,0,135.512-57.964,148.972-118.191c2.418-10.766,3.544-21.396,3.544-31.881c0-2.269,0-4.674,0-6.804   C370.391,196.126,379.609,186.771,386.692,176.285L386.692,176.285z" fill="#FFFFFF" fill-rule="evenodd"/></g></svg>