<?xml version="1.0" encoding="UTF-8" standalone="no"?>
<svg
   xmlns:dc="http://purl.org/dc/elements/1.1/"
   xmlns:cc="http://creativecommons.org/ns#"
   xmlns:rdf="http://www.w3.org/1999/02/22-rdf-syntax-ns#"
   xmlns:svg="http://www.w3.org/2000/svg"
   xmlns="http://www.w3.org/2000/svg"
   xmlns:sodipodi="http://sodipodi.sourceforge.net/DTD/sodipodi-0.dtd"
   xmlns:inkscape="http://www.inkscape.org/namespaces/inkscape"
   id="Layer_1"
   style="enable-background:new 0 0 100 100;"
   version="1.1"
   viewBox="0 0 100 100"
   xml:space="preserve"
   inkscape:version="0.91 r13725"
   sodipodi:docname="da-icon.svg"><metadata
     id="metadata4190"><rdf:RDF><cc:Work
         rdf:about=""><dc:format>image/svg+xml</dc:format><dc:type
           rdf:resource="http://purl.org/dc/dcmitype/StillImage" /></cc:Work></rdf:RDF></metadata><defs
     id="defs4188" /><sodipodi:namedview
     pagecolor="#ffffff"
     bordercolor="#666666"
     borderopacity="1"
     objecttolerance="10"
     gridtolerance="10"
     guidetolerance="10"
     inkscape:pageopacity="0"
     inkscape:pageshadow="2"
     inkscape:window-width="1920"
     inkscape:window-height="1056"
     id="namedview4186"
     showgrid="false"
     inkscape:zoom="3.2491557"
     inkscape:cx="94.456857"
     inkscape:cy="4.6338487"
     inkscape:window-x="0"
     inkscape:window-y="24"
     inkscape:window-maximized="1"
     inkscape:current-layer="Layer_1" /><circle
     style="fill:#000000;fill-opacity:1;stroke:none;stroke-width:3;stroke-miterlimit:4;stroke-dasharray:none;stroke-opacity:1"
     id="path4192"
     cx="50.320766"
     cy="50.602554"
     r="49.243568" /><g
     inkscape:groupmode="layer"
     id="layer1"
     inkscape:label="Layer 1"><path
       d="m 68.877491,31.74352 0,-10.689657 c 0,-0.206896 -0.06896,-0.344826 -0.206896,-0.482757 -0.137931,-0.137931 -0.275863,-0.206897 -0.482759,-0.206897 l -11.655172,0 c -0.275863,0 -0.482759,0.137931 -0.62069,0.344828 l -0.620689,1.103448 -5.310344,8.482758 -1.448277,1.862069 -18.413794,0 c -0.413792,0 -0.689655,0.275863 -0.689655,0.689655 l 0,16.068967 c 0,0.413792 0.275863,0.689655 0.689655,0.689655 l 10.275863,0 0.482759,0.551723 -11.379311,21.37931 c -0.06896,0.06896 -0.06896,0.206897 -0.06896,0.344829 l 0,11.241379 c 0,0.413787 0.27586,0.68965 0.689653,0.68965 l 11.655173,0 c 0.275861,0 0.482757,-0.137926 0.620689,-0.344825 l 6.344828,-11.241377 0.827585,-1.241379 18.620691,0 c 0.413793,0 0.689655,-0.275861 0.689655,-0.689655 l 0,-15.034483 c 0,-0.413793 -0.275862,-0.689655 -0.689655,-0.689655 l -10.275863,0 -0.482758,-0.482759 11.37931,-22 c 0.06896,-0.137931 0.06896,-0.206897 0.06896,-0.344827 z"
       id="path4184"
       inkscape:connector-curvature="0"
       style="fill:#ffffff" /></g></svg>