<?xml version="1.0" ?><!DOCTYPE svg  PUBLIC '-//W3C//DTD SVG 1.1//EN'  'http://www.w3.org/Graphics/SVG/1.1/DTD/svg11.dtd'><svg enable-background="new 0 0 512 512" height="512px" id="Layer_1" version="1.1" viewBox="0 0 512 512" width="512px" xml:space="preserve" xmlns="http://www.w3.org/2000/svg" xmlns:xlink="http://www.w3.org/1999/xlink"><g><path d="M437.017,74.985C390.665,28.629,326.732,0,256,0S121.338,28.629,74.986,74.985C28.634,121.341,0,185.268,0,256   s28.634,134.661,74.986,181.014C121.338,483.368,185.268,512,256,512s134.665-28.632,181.017-74.986   C483.368,390.661,512,326.732,512,256S483.368,121.341,437.017,74.985z"/><path clip-rule="evenodd" d="M275.559,203.692v-20.978c0-10.064,6.664-12.473,11.491-12.473   c4.675,0,29.338,0,29.338,0v-44.795h-40.4c-44.933,0-54.995,33.168-54.995,54.716v23.529h-26.087v31.61V256h26.365   c0,59.393,0,130.695,0,130.695h52.309c0,0,0-72.295,0-130.695h38.693l1.707-20.554l3.12-31.754H275.559z" fill="#FFFFFF" fill-rule="evenodd"/></g></svg>